# xmcd CD database file
#
# Track frame offsets:
#	150
#	19298
#	38311
#	52763
#	68147
#	82881
#	99223
#	113923
#	132632
#	150065
#	166372
#	182136
#	199405
#	217595
#	233553
#	251504
#	267049
#	280956
#	297065
#	309957
#
# Disc length: 4338 seconds
#
# Revision: 2
# Processed by: cddbd v1.5.2PL0 Copyright (c) Steve Scherf et al.
# Submitted via: CDex 1.70beta2
#
DISCID=fa10f014
DTITLE=Diverse - Ottis Wiesn Hits 2005 CD2
DYEAR=2005
DGENRE=Folk-Rock
TTITLE0=Reinhard Fendrich - Macho, Macho
TTITLE1=Eav - Küss Die Hand Schöne Frau
TTITLE2=Buddy - Mama Mallorca
TTITLE3=Blue Lagoon - Heartbreaker
TTITLE4=Buttons - Ilarie
TTITLE5=Papi Sanchez - Enamorame
TTITLE6=Papa Ad - Gasolina
TTITLE7=Nitty - Nasty Girl
TTITLE8=Boss Hoss - Hey Ya!
TTITLE9=Juli - Geile Zeit
TTITLE10=Danzel - Put Your Hands Up In The Air
TTITLE11=Groove Coverage - Holy Virgin
TTITLE12=Dj Sammy - Why
TTITLE13=Arsenium - Love Me..., Love Me...
TTITLE14=Housekeepers - Go Down
TTITLE15=Beats and Stylez - Dance Dance Dance
TTITLE16=Elizé - I'm No Latino
TTITLE17=Global Deejays - What A Feeling (Flashdance)
TTITLE18=Crazy Frog - Axel F.
TTITLE19=Vinylshakerz - Club Tropicana
EXTD=YEAR: 2005
EXTT0=
EXTT1=
EXTT2=
EXTT3=
EXTT4=
EXTT5=
EXTT6=
EXTT7=
EXTT8=
EXTT9=
EXTT10=
EXTT11=
EXTT12=
EXTT13=
EXTT14=
EXTT15=
EXTT16=
EXTT17=
EXTT18=
EXTT19=
PLAYORDER=
